<svg xmlns="http://www.w3.org/2000/svg" viewBox="0 0 1000 640" width="1000" height="640" style="background-color:#0b0c10;font-family:'Latin Modern Roman','CMU Serif','Times New Roman',Times,serif">
  <title>Random Forest, Part 2 — Random Feature Subsets and Out-of-Bag Error</title>
  <rect width="1000" height="640" fill="#0b0c10"/>

  <defs>
    <marker id="arrow" viewBox="0 0 10 10" refX="8" refY="5" markerWidth="6" markerHeight="6" orient="auto">
      <path d="M 0 0 L 10 5 L 0 10 z" fill="#8a99ad"/>
    </marker>
    
    <!-- Trees -->
    <g id="trL">
      <rect x="-1.5" y="0" width="3" height="12" fill="#8b5a2b"/>
      <circle cx="0" cy="-2" r="6" fill="#7fe0a1"/>
    </g>
    <g id="trD">
      <rect x="-1.5" y="0" width="3" height="12" fill="#8b5a2b"/>
      <circle cx="0" cy="-2" r="6" fill="#1f6b3a"/>
    </g>

    <!-- Grid 10x10 Light (Spacing 15) -->
    <g id="r10L">
      <use href="#trL" x="0"/><use href="#trL" x="15"/><use href="#trL" x="30"/><use href="#trL" x="45"/><use href="#trL" x="60"/>
      <use href="#trL" x="75"/><use href="#trL" x="90"/><use href="#trL" x="105"/><use href="#trL" x="120"/><use href="#trL" x="135"/>
    </g>
    <g id="g10L">
      <use href="#r10L" y="0"/><use href="#r10L" y="15"/><use href="#r10L" y="30"/><use href="#r10L" y="45"/><use href="#r10L" y="60"/>
      <use href="#r10L" y="75"/><use href="#r10L" y="90"/><use href="#r10L" y="105"/><use href="#r10L" y="120"/><use href="#r10L" y="135"/>
    </g>

    <!-- Grid 10x10 Dark (Spacing 15) -->
    <g id="r10D">
      <use href="#trD" x="0"/><use href="#trD" x="15"/><use href="#trD" x="30"/><use href="#trD" x="45"/><use href="#trD" x="60"/>
      <use href="#trD" x="75"/><use href="#trD" x="90"/><use href="#trD" x="105"/><use href="#trD" x="120"/><use href="#trD" x="135"/>
    </g>
    <g id="g10D">
      <use href="#r10D" y="0"/><use href="#r10D" y="15"/><use href="#r10D" y="30"/><use href="#r10D" y="45"/><use href="#r10D" y="60"/>
      <use href="#r10D" y="75"/><use href="#r10D" y="90"/><use href="#r10D" y="105"/><use href="#r10D" y="120"/><use href="#r10D" y="135"/>
    </g>

    <!-- Grid 10x10 Light Large (Spacing 20) -->
    <g id="r10L_20">
      <use href="#trL" x="0"/><use href="#trL" x="20"/><use href="#trL" x="40"/><use href="#trL" x="60"/><use href="#trL" x="80"/>
      <use href="#trL" x="100"/><use href="#trL" x="120"/><use href="#trL" x="140"/><use href="#trL" x="160"/><use href="#trL" x="180"/>
    </g>
    <g id="g10L_20">
      <use href="#r10L_20" y="0"/><use href="#r10L_20" y="20"/><use href="#r10L_20" y="40"/><use href="#r10L_20" y="60"/><use href="#r10L_20" y="80"/>
      <use href="#r10L_20" y="100"/><use href="#r10L_20" y="120"/><use href="#r10L_20" y="140"/><use href="#r10L_20" y="160"/><use href="#r10L_20" y="180"/>
    </g>

    <!-- Dot Grid for 1000 Rows (40x25, Spacing 10) -->
    <g id="dot_row">
      <line x1="0" y1="0" x2="390" y2="0" stroke="#4cf26d" stroke-width="3" stroke-dasharray="3 7"/>
    </g>
    <g id="dot_grid">
      <use href="#dot_row" y="0"/><use href="#dot_row" y="10"/><use href="#dot_row" y="20"/><use href="#dot_row" y="30"/><use href="#dot_row" y="40"/>
      <use href="#dot_row" y="50"/><use href="#dot_row" y="60"/><use href="#dot_row" y="70"/><use href="#dot_row" y="80"/><use href="#dot_row" y="90"/>
      <use href="#dot_row" y="100"/><use href="#dot_row" y="110"/><use href="#dot_row" y="120"/><use href="#dot_row" y="130"/><use href="#dot_row" y="140"/>
      <use href="#dot_row" y="150"/><use href="#dot_row" y="160"/><use href="#dot_row" y="170"/><use href="#dot_row" y="180"/><use href="#dot_row" y="190"/>
      <use href="#dot_row" y="200"/><use href="#dot_row" y="210"/><use href="#dot_row" y="220"/><use href="#dot_row" y="230"/><use href="#dot_row" y="240"/>
    </g>
  </defs>

  <style>
    /* Scene 1 Animations */
    .t2_0_s1  { animation: k2_0_s1 80s linear forwards; opacity: 0; }
    .t2_0_f1  { animation: k2_0_f1 80s linear forwards; opacity: 0; }
    .t4_5_s1  { animation: k4_5_s1 80s linear forwards; opacity: 0; }
    .t6_5_s1  { animation: k6_5_s1 80s linear forwards; opacity: 0; }
    
    @keyframes k2_0_s1 { 0%, 4% {opacity: 0} 5%, 21.5% {opacity: 1} 22.5%, 100% {opacity: 0} }
    @keyframes k2_0_f1 { 0%, 4% {opacity: 0} 5%, 100% {opacity: 1} }
    @keyframes k4_5_s1 { 0%, 10.25% {opacity: 0} 11.25%, 21.5% {opacity: 1} 22.5%, 100% {opacity: 0} }
    @keyframes k6_5_s1 { 0%, 15.25% {opacity: 0} 16.25%, 21.5% {opacity: 1} 22.5%, 100% {opacity: 0} }

    /* Scene 2 Animations */
    .t10_0_s2 { animation: k10_0_s2 80s linear forwards; opacity: 0; }
    .t12_5_s2 { animation: k12_5_s2 80s linear forwards; opacity: 0; }
    .t13_5_s2 { animation: k13_5_s2 80s linear forwards; opacity: 0; }

    @keyframes k10_0_s2 { 0%, 24% {opacity: 0} 25%, 36.5% {opacity: 1} 37.5%, 100% {opacity: 0} }
    @keyframes k12_5_s2 { 0%, 30.25% {opacity: 0} 31.25%, 36.5% {opacity: 1} 37.5%, 100% {opacity: 0} }
    @keyframes k13_5_s2 { 0%, 32.75% {opacity: 0} 33.75%, 36.5% {opacity: 1} 37.5%, 100% {opacity: 0} }

    /* Scene 3 Animations */
    .t16_0_s3a { animation: k16_0_s3a 80s linear forwards; opacity: 0; }
    .t16_0_f2  { animation: k16_0_f2 80s linear forwards; opacity: 0; }
    .t19_0_s3a { animation: k19_0_s3a 80s linear forwards; opacity: 0; }
    .t19_0_f3  { animation: k19_0_f3 80s linear forwards; opacity: 0; }
    .t22_0_s3b { animation: k22_0_s3b 80s linear forwards; opacity: 0; }

    @keyframes k16_0_s3a { 0%, 39% {opacity: 0} 40%, 54% {opacity: 1} 55%, 100% {opacity: 0} }
    @keyframes k16_0_f2  { 0%, 39% {opacity: 0} 40%, 100% {opacity: 1} }
    @keyframes k19_0_s3a { 0%, 46.5% {opacity: 0} 47.5%, 54% {opacity: 1} 55%, 100% {opacity: 0} }
    @keyframes k19_0_f3  { 0%, 46.5% {opacity: 0} 47.5%, 100% {opacity: 1} }
    @keyframes k22_0_s3b { 0%, 54% {opacity: 0} 55%, 66.5% {opacity: 1} 67.5%, 100% {opacity: 0} }

    /* Scene 4 Animations */
    .t28_0_s4_grid { animation: k28_0_s4_grid 80s linear forwards; opacity: 0; }
    .t28_0_s4a { animation: k28_0_s4a 80s linear forwards; opacity: 0; }
    .t28_0_f4  { animation: k28_0_f4 80s linear forwards; opacity: 0; }
    .t30_5_s4a { animation: k30_5_s4a 80s linear forwards; opacity: 0; }
    .t32_5_s4b { animation: k32_5_s4b 80s linear forwards; opacity: 0; }

    @keyframes k28_0_s4_grid { 0%, 69% {opacity: 0} 70%, 84% {opacity: 1} 85%, 100% {opacity: 0} }
    @keyframes k28_0_s4a { 0%, 69% {opacity: 0} 70%, 80.25% {opacity: 1} 81.25%, 100% {opacity: 0} }
    @keyframes k28_0_f4  { 0%, 69% {opacity: 0} 70%, 100% {opacity: 1} }
    @keyframes k30_5_s4a { 0%, 75.25% {opacity: 0} 76.25%, 80.25% {opacity: 1} 81.25%, 100% {opacity: 0} }
    @keyframes k32_5_s4b { 0%, 80.25% {opacity: 0} 81.25%, 84% {opacity: 1} 85%, 100% {opacity: 0} }

    /* Scene 5 Animations */
    .t35_0_s5 { animation: k35_0_s5 80s linear forwards; opacity: 0; }
    .t35_0_f5 { animation: k35_0_f5 80s linear forwards; opacity: 0; }
    .t37_5_s5 { animation: k37_5_s5 80s linear forwards; opacity: 0; }

    @keyframes k35_0_s5 { 0%, 86.5% {opacity: 0} 87.5%, 100% {opacity: 1} }
    @keyframes k35_0_f5 { 0%, 86.5% {opacity: 0} 87.5%, 100% {opacity: 1} }
    @keyframes k37_5_s5 { 0%, 92.75% {opacity: 0} 93.75%, 100% {opacity: 1} }

    /* formula to picture sync: highlight the active formula, echo it on the stage with real numbers */
    .hl1 { animation: khl1 80s linear forwards; opacity: 0; }
    .hl2 { animation: khl2 80s linear forwards; opacity: 0; }
    .hl3 { animation: khl3 80s linear forwards; opacity: 0; }
    .hl4 { animation: khl4 80s linear forwards; opacity: 0; }
    .hl5 { animation: khl5 80s linear forwards; opacity: 0; }
    .st2 { animation: kst2 80s linear forwards; opacity: 0; }
    .st3a { animation: kst3a 80s linear forwards; opacity: 0; }
    .st3b { animation: kst3b 80s linear forwards; opacity: 0; }
    .st5 { animation: kst5 80s linear forwards; opacity: 0; }
    @keyframes khl1 { 0%, 4% {opacity: 0} 5%, 21.5% {opacity: 1} 22.5%, 100% {opacity: 0} }
    @keyframes khl2 { 0%, 39% {opacity: 0} 40%, 46.5% {opacity: 1} 47.5%, 100% {opacity: 0} }
    @keyframes khl3 { 0%, 46.5% {opacity: 0} 47.5%, 66.5% {opacity: 1} 67.5%, 100% {opacity: 0} }
    @keyframes khl4 { 0%, 69% {opacity: 0} 70%, 84% {opacity: 1} 85%, 100% {opacity: 0} }
    @keyframes khl5 { 0%, 86.5% {opacity: 0} 87.5%, 100% {opacity: 1} }
    @keyframes kst2 { 0%, 40.25% {opacity: 0} 41.25%, 54% {opacity: 1} 55%, 100% {opacity: 0} }
    @keyframes kst3a { 0%, 47.75% {opacity: 0} 48.75%, 54% {opacity: 1} 55%, 100% {opacity: 0} }
    @keyframes kst3b { 0%, 55.25% {opacity: 0} 56.25%, 66.5% {opacity: 1} 67.5%, 100% {opacity: 0} }
    @keyframes kst5 { 0%, 92.75% {opacity: 0} 93.75%, 100% {opacity: 1} }
  </style>

  <!-- Title -->
  <text x="40" y="64" fill="#f0f4f8" font-size="24" font-weight="bold">Random Forest, Part 2 — Random Feature Subsets and Out-of-Bag Error</text>

  <!-- ======================= STAGE (Left Zone) ======================= -->

  <!-- Scene 1 -->
  <g transform="translate(0, 0)">
    <g class="t2_0_s1">
      <text x="130" y="160" fill="#f0f4f8" font-size="20">m = 3</text>
      <rect x="50" y="200" width="160" height="26" fill="#131924" stroke="#38bdf8" stroke-width="1.5" rx="3"/>
      <text x="130" y="218" fill="#38bdf8" font-size="15" text-anchor="middle" font-family="system-ui,sans-serif">Chest Pain</text>
      
      <rect x="50" y="235" width="160" height="26" fill="#131924" stroke="#38bdf8" stroke-width="1.5" rx="3"/>
      <text x="130" y="253" fill="#38bdf8" font-size="15" text-anchor="middle" font-family="system-ui,sans-serif">Good Blood Circ.</text>
      
      <rect x="50" y="270" width="160" height="26" fill="#131924" stroke="#38bdf8" stroke-width="1.5" rx="3"/>
      <text x="130" y="288" fill="#38bdf8" font-size="15" text-anchor="middle" font-family="system-ui,sans-serif">Weight</text>
      
      <rect x="50" y="305" width="160" height="26" fill="#0b0c10" stroke="#475569" stroke-width="1.5" rx="3"/>
      <text x="130" y="323" fill="#8a99ad" font-size="15" text-anchor="middle" font-family="system-ui,sans-serif">Blocked Arteries</text>
      
      <text x="130" y="365" fill="#38bdf8" font-size="15" text-anchor="middle">best of 3</text>
    </g>

    <g class="t4_5_s1">
      <text x="400" y="160" fill="#f0f4f8" font-size="20">m = 4</text>
      <rect x="320" y="200" width="160" height="26" fill="#131924" stroke="#38bdf8" stroke-width="1.5" rx="3"/>
      <text x="400" y="218" fill="#38bdf8" font-size="15" text-anchor="middle" font-family="system-ui,sans-serif">Chest Pain</text>
      
      <rect x="320" y="235" width="160" height="26" fill="#131924" stroke="#38bdf8" stroke-width="1.5" rx="3"/>
      <text x="400" y="253" fill="#38bdf8" font-size="15" text-anchor="middle" font-family="system-ui,sans-serif">Good Blood Circ.</text>
      
      <rect x="320" y="270" width="160" height="26" fill="#131924" stroke="#38bdf8" stroke-width="1.5" rx="3"/>
      <text x="400" y="288" fill="#38bdf8" font-size="15" text-anchor="middle" font-family="system-ui,sans-serif">Weight</text>
      
      <rect x="320" y="305" width="160" height="26" fill="#131924" stroke="#38bdf8" stroke-width="1.5" rx="3"/>
      <text x="400" y="323" fill="#38bdf8" font-size="15" text-anchor="middle" font-family="system-ui,sans-serif">Blocked Arteries</text>
      
      <text x="400" y="365" fill="#38bdf8" font-size="15" text-anchor="middle">best of 4</text>
    </g>

    <g class="t6_5_s1">
      <text x="400" y="405" fill="#facc15" font-size="15" text-anchor="middle">the strongest column wins every time</text>
    </g>
  </g>

  <!-- Scene 2 -->
  <g transform="translate(0, 0)">
    <g class="t10_0_s2">
      <text x="175" y="190" fill="#f0f4f8" font-size="15" text-anchor="middle">m = 3, 100 trees</text>
      <use href="#g10L" x="100" y="220"/>
      
      <text x="425" y="190" fill="#f0f4f8" font-size="15" text-anchor="middle">m = 4, 100 trees</text>
      <use href="#g10D" x="350" y="220"/>
    </g>
    <g class="t12_5_s2">
      <text x="300" y="280" fill="#f0f4f8" font-size="32" font-weight="bold" text-anchor="middle">?</text>
    </g>
    <g class="t13_5_s2">
      <text x="300" y="420" fill="#4cf26d" font-size="15" text-anchor="middle">compare by OOB error</text>
    </g>
  </g>

  <!-- Scene 3 -->
  <g transform="translate(0, 0)">
    <!-- Scene 3a -->
    <g class="t16_0_s3a">
      <rect x="220" y="130" width="80" height="26" fill="#131924" stroke="#475569" rx="3"/>
      <text x="260" y="148" fill="#f0f4f8" font-size="15" text-anchor="middle" font-family="system-ui,sans-serif">row 1</text>
      <text x="320" y="148" fill="#ff4d4d" font-size="15">true: No</text>

      <g opacity="0.3">
        <use href="#g10L_20" x="60" y="200"/>
      </g>
      <!-- 37 bright trees -->
      <use href="#trL" x="60" y="200"/><use href="#trL" x="120" y="200"/><use href="#trL" x="200" y="200"/>
      <use href="#trL" x="80" y="220"/><use href="#trL" x="160" y="220"/><use href="#trL" x="220" y="220"/><use href="#trL" x="240" y="220"/>
      <use href="#trL" x="60" y="240"/><use href="#trL" x="100" y="240"/><use href="#trL" x="180" y="240"/>
      <use href="#trL" x="120" y="260"/><use href="#trL" x="140" y="260"/><use href="#trL" x="200" y="260"/><use href="#trL" x="240" y="260"/>
      <use href="#trL" x="80" y="280"/><use href="#trL" x="160" y="280"/><use href="#trL" x="220" y="280"/>
      <use href="#trL" x="100" y="300"/><use href="#trL" x="120" y="300"/><use href="#trL" x="180" y="300"/>
      <use href="#trL" x="60" y="320"/><use href="#trL" x="140" y="320"/><use href="#trL" x="200" y="320"/><use href="#trL" x="240" y="320"/>
      <use href="#trL" x="80" y="340"/><use href="#trL" x="100" y="340"/><use href="#trL" x="160" y="340"/>
      <use href="#trL" x="60" y="360"/><use href="#trL" x="120" y="360"/><use href="#trL" x="180" y="360"/><use href="#trL" x="220" y="360"/>
      <use href="#trL" x="140" y="380"/><use href="#trL" x="200" y="380"/><use href="#trL" x="240" y="380"/>
      <use href="#trL" x="80" y="400"/><use href="#trL" x="100" y="400"/><use href="#trL" x="160" y="400"/>
      
      <text x="320" y="260" fill="#f0f4f8" font-size="15">37 never saw row 1</text>
    </g>
    <g class="t19_0_s3a">
      <path d="M 260 280 Q 300 290 320 290" stroke="#8a99ad" stroke-width="2" stroke-dasharray="2 4" fill="none"/>
      <text x="330" y="295" fill="#ff4d4d" font-size="15">No 25</text>
      <text x="330" y="325" fill="#38bdf8" font-size="15">Yes 12</text>
      <text x="330" y="380" fill="#f0f4f8" font-size="20"><tspan font-style="italic">ŷ</tspan><tspan baseline-shift="sub" font-size="12" font-style="italic">1</tspan> = No</text>
      <text x="410" y="380" fill="#4cf26d" font-size="20">✓</text>
    </g>

    <!-- Scene 3b -->
    <g class="t22_0_s3b">
      <rect x="220" y="130" width="80" height="26" fill="#131924" stroke="#475569" rx="3"/>
      <text x="260" y="148" fill="#f0f4f8" font-size="15" text-anchor="middle" font-family="system-ui,sans-serif">row 7</text>
      <text x="320" y="148" fill="#38bdf8" font-size="15">true: Yes</text>

      <g opacity="0.3">
        <use href="#g10L_20" x="60" y="200"/>
      </g>
      <!-- 35 bright trees -->
      <use href="#trL" x="80" y="200"/><use href="#trL" x="140" y="200"/><use href="#trL" x="220" y="200"/>
      <use href="#trL" x="60" y="220"/><use href="#trL" x="120" y="220"/><use href="#trL" x="200" y="220"/><use href="#trL" x="240" y="220"/>
      <use href="#trL" x="100" y="240"/><use href="#trL" x="160" y="240"/>
      <use href="#trL" x="80" y="260"/><use href="#trL" x="140" y="260"/><use href="#trL" x="180" y="260"/><use href="#trL" x="220" y="260"/>
      <use href="#trL" x="60" y="280"/><use href="#trL" x="120" y="280"/><use href="#trL" x="200" y="280"/>
      <use href="#trL" x="140" y="300"/><use href="#trL" x="160" y="300"/><use href="#trL" x="240" y="300"/>
      <use href="#trL" x="80" y="320"/><use href="#trL" x="120" y="320"/><use href="#trL" x="180" y="320"/>
      <use href="#trL" x="60" y="340"/><use href="#trL" x="100" y="340"/><use href="#trL" x="200" y="340"/><use href="#trL" x="220" y="340"/>
      <use href="#trL" x="140" y="360"/><use href="#trL" x="160" y="360"/><use href="#trL" x="240" y="360"/>
      <use href="#trL" x="80" y="380"/><use href="#trL" x="120" y="380"/><use href="#trL" x="180" y="380"/>
      <use href="#trL" x="60" y="400"/><use href="#trL" x="100" y="400"/><use href="#trL" x="200" y="400"/><use href="#trL" x="220" y="400"/>

      <text x="320" y="260" fill="#f0f4f8" font-size="15">35 never saw row 7</text>
      
      <path d="M 260 280 Q 300 290 320 290" stroke="#8a99ad" stroke-width="2" stroke-dasharray="2 4" fill="none"/>
      <text x="330" y="295" fill="#38bdf8" font-size="15">Yes 16</text>
      <text x="330" y="325" fill="#ff4d4d" font-size="15">No 19</text>
      <text x="330" y="380" fill="#f0f4f8" font-size="20"><tspan font-style="italic">ŷ</tspan><tspan baseline-shift="sub" font-size="12" font-style="italic">7</tspan> = No ≠ <tspan font-style="italic">y</tspan><tspan baseline-shift="sub" font-size="12" font-style="italic">7</tspan></text>
      <text x="470" y="380" fill="#ff4d4d" font-size="20">✗</text>
    </g>
  </g>

  <!-- Scene 4 -->
  <g transform="translate(0, 0)">
    <g class="t28_0_s4_grid">
      <use href="#dot_grid" x="100" y="200"/>
    </g>
    
    <g class="t28_0_s4a">
      <text x="100" y="170" fill="#f0f4f8" font-size="15">1000 rows</text>
      <!-- Scattered 176 Red Dots -->
      <path d="M110 200h3 M230 200h3 M310 200h3 M400 200h3 M490 200h3 M100 210h3 M110 210h3 M140 210h3 M170 210h3 M180 210h3 M210 210h3 M230 210h3 M240 210h3 M280 210h3 M330 210h3 M340 210h3 M430 210h3 M100 220h3 M110 220h3 M160 220h3 M170 220h3 M200 220h3 M300 220h3 M370 220h3 M440 220h3 M450 220h3 M460 220h3 M480 220h3 M110 230h3 M280 230h3 M410 230h3 M450 230h3 M460 230h3 M490 230h3 M230 240h3 M250 240h3 M280 240h3 M350 240h3 M370 240h3 M410 240h3 M460 240h3 M130 250h3 M180 250h3 M330 250h3 M390 250h3 M400 250h3 M430 250h3 M100 260h3 M160 260h3 M300 260h3 M310 260h3 M320 260h3 M350 260h3 M370 260h3 M300 270h3 M370 270h3 M430 270h3 M450 270h3 M410 280h3 M420 280h3 M440 280h3 M110 290h3 M170 290h3 M330 290h3 M360 290h3 M410 290h3 M170 300h3 M270 300h3 M300 300h3 M340 300h3 M430 300h3 M100 310h3 M120 310h3 M170 310h3 M220 310h3 M250 310h3 M350 310h3 M360 310h3 M390 310h3 M430 310h3 M460 310h3 M150 320h3 M220 320h3 M250 320h3 M310 320h3 M330 320h3 M350 320h3 M380 320h3 M390 320h3 M430 320h3 M440 320h3 M470 320h3 M120 330h3 M290 330h3 M310 330h3 M420 330h3 M490 330h3 M140 340h3 M180 340h3 M260 340h3 M290 340h3 M470 340h3 M480 340h3 M120 350h3 M140 350h3 M250 350h3 M410 350h3 M480 350h3 M110 360h3 M120 360h3 M140 360h3 M170 360h3 M270 360h3 M320 360h3 M400 360h3 M420 360h3 M100 370h3 M230 370h3 M290 370h3 M360 370h3 M430 370h3 M440 370h3 M490 370h3 M160 380h3 M230 380h3 M270 380h3 M280 380h3 M290 380h3 M390 380h3 M450 380h3 M470 380h3 M150 390h3 M160 390h3 M250 390h3 M330 390h3 M370 390h3 M420 390h3 M440 390h3 M490 390h3 M330 400h3 M360 400h3 M420 400h3 M180 410h3 M190 410h3 M230 410h3 M360 410h3 M390 410h3 M410 410h3 M440 410h3 M490 410h3 M100 420h3 M150 420h3 M160 420h3 M170 420h3 M210 420h3 M240 420h3 M260 420h3 M270 420h3 M300 420h3 M340 420h3 M360 420h3 M390 420h3 M410 420h3 M460 420h3 M100 430h3 M110 430h3 M200 430h3 M260 430h3 M360 430h3 M390 430h3 M440 430h3 M490 430h3 M110 440h3 M150 440h3 M400 440h3 M490 440h3" stroke="#ff4d4d" stroke-width="3"/>
    </g>

    <g class="t30_5_s4a">
      <text x="100" y="490" fill="#ff4d4d" font-size="15">wrong: 176</text>
      <text x="210" y="490" fill="#f0f4f8" font-size="20">OOB(3) = (1/1000) · 176 = 17.6 %</text>
    </g>

    <g class="t32_5_s4b">
      <text x="100" y="170" fill="#f0f4f8" font-size="15">1000 rows</text>
      <!-- Scattered 210 Red Dots (denser) -->
      <path d="M110 200h3 M160 200h3 M230 200h3 M310 200h3 M400 200h3 M490 200h3 M100 210h3 M110 210h3 M140 210h3 M150 210h3 M170 210h3 M180 210h3 M210 210h3 M230 210h3 M240 210h3 M280 210h3 M330 210h3 M340 210h3 M360 210h3 M430 210h3 M450 210h3 M100 220h3 M110 220h3 M160 220h3 M170 220h3 M200 220h3 M300 220h3 M370 220h3 M380 220h3 M440 220h3 M450 220h3 M460 220h3 M480 220h3 M110 230h3 M160 230h3 M280 230h3 M300 230h3 M410 230h3 M450 230h3 M460 230h3 M490 230h3 M230 240h3 M250 240h3 M280 240h3 M350 240h3 M370 240h3 M410 240h3 M460 240h3 M480 240h3 M130 250h3 M170 250h3 M180 250h3 M330 250h3 M390 250h3 M400 250h3 M430 250h3 M100 260h3 M120 260h3 M160 260h3 M300 260h3 M310 260h3 M320 260h3 M350 260h3 M370 260h3 M430 260h3 M280 270h3 M300 270h3 M370 270h3 M430 270h3 M440 270h3 M450 270h3 M130 280h3 M350 280h3 M410 280h3 M420 280h3 M440 280h3 M460 280h3 M490 280h3 M110 290h3 M170 290h3 M330 290h3 M360 290h3 M410 290h3 M100 300h3 M170 300h3 M270 300h3 M300 300h3 M340 300h3 M370 300h3 M430 300h3 M100 310h3 M120 310h3 M150 310h3 M170 310h3 M220 310h3 M250 310h3 M350 310h3 M360 310h3 M390 310h3 M430 310h3 M460 310h3 M150 320h3 M220 320h3 M240 320h3 M250 320h3 M270 320h3 M310 320h3 M330 320h3 M350 320h3 M380 320h3 M390 320h3 M430 320h3 M440 320h3 M450 320h3 M470 320h3 M120 330h3 M290 330h3 M310 330h3 M420 330h3 M490 330h3 M100 340h3 M140 340h3 M180 340h3 M260 340h3 M290 340h3 M470 340h3 M480 340h3 M120 350h3 M140 350h3 M250 350h3 M290 350h3 M410 350h3 M480 350h3 M110 360h3 M120 360h3 M140 360h3 M170 360h3 M200 360h3 M270 360h3 M320 360h3 M370 360h3 M400 360h3 M420 360h3 M100 370h3 M230 370h3 M290 370h3 M360 370h3 M430 370h3 M440 370h3 M490 370h3 M160 380h3 M230 380h3 M270 380h3 M280 380h3 M290 380h3 M390 380h3 M450 380h3 M470 380h3 M480 380h3 M150 390h3 M160 390h3 M250 390h3 M330 390h3 M370 390h3 M420 390h3 M440 390h3 M490 390h3 M110 400h3 M330 400h3 M360 400h3 M420 400h3 M430 400h3 M180 410h3 M190 410h3 M230 410h3 M360 410h3 M390 410h3 M410 410h3 M440 410h3 M490 410h3 M100 420h3 M150 420h3 M160 420h3 M170 420h3 M210 420h3 M240 420h3 M260 420h3 M270 420h3 M300 420h3 M310 420h3 M340 420h3 M360 420h3 M390 420h3 M410 420h3 M460 420h3 M100 430h3 M110 430h3 M170 430h3 M200 430h3 M260 430h3 M360 430h3 M390 430h3 M440 430h3 M490 430h3 M110 440h3 M150 440h3 M190 440h3 M380 440h3 M400 440h3 M490 440h3" stroke="#ff4d4d" stroke-width="3"/>
      
      <text x="100" y="490" fill="#ff4d4d" font-size="15">wrong: 210</text>
      <text x="210" y="490" fill="#f0f4f8" font-size="20">OOB(4) = (1/1000) · 210 = 21.0 %</text>
    </g>
  </g>

  <!-- Scene 5 -->
  <g transform="translate(0, 0)">
    <g class="t35_0_s5">
      <text x="220" y="222" fill="#f0f4f8" font-size="20" text-anchor="middle"><tspan font-style="italic">m</tspan> = 3</text>
      <text x="220" y="262" fill="#7fe0a1" font-size="30" text-anchor="middle">17.6 %</text>
      <text x="452" y="222" fill="#f0f4f8" font-size="20" text-anchor="middle"><tspan font-style="italic">m</tspan> = 4</text>
      <text x="452" y="262" fill="#94a3b8" font-size="30" text-anchor="middle">21.0 %</text>
      <use href="#g10L" x="145" y="300"/>
      <use href="#g10D" x="385" y="300"/>
    </g>

    <g class="t37_5_s5">
      <rect x="110" y="180" width="220" height="300" fill="none" stroke="#4cf26d" stroke-width="2" rx="4"/>
      <text x="200" y="520" fill="#4cf26d" font-size="20">✓</text>
      <text x="230" y="520" fill="#4cf26d" font-size="20">m = 3</text>
    </g>
  </g>

  <!-- stage echoes of the formulas, with the real numbers -->
  <g class="st2"><text x="320" y="228" fill="#facc15" font-size="15">0.368 · 100 ≈ 37 trees</text></g>
  <g class="st3a"><text x="330" y="352" fill="#facc15" font-size="15">majority{ No 25, Yes 12 }</text></g>
  <g class="st3b"><text x="330" y="352" fill="#facc15" font-size="15">majority{ Yes 16, No 19 }</text></g>
  <g class="st5"><text x="300" y="565" fill="#facc15" font-size="17" text-anchor="middle"><tspan font-style="italic">m</tspan>* = argmin{ 17.6 %, 21.0 % } = 3</text></g>

  <!-- highlight behind the active formula (drawn before the column so it sits underneath) -->
  <g class="hl1"><rect x="570" y="116" width="390" height="34" rx="4" fill="#131924" stroke="#facc15" stroke-width="1.5"/></g>
  <g class="hl2"><rect x="570" y="216" width="390" height="64" rx="4" fill="#131924" stroke="#facc15" stroke-width="1.5"/></g>
  <g class="hl3"><rect x="570" y="326" width="390" height="34" rx="4" fill="#131924" stroke="#facc15" stroke-width="1.5"/></g>
  <g class="hl4"><rect x="570" y="426" width="390" height="34" rx="4" fill="#131924" stroke="#facc15" stroke-width="1.5"/></g>
  <g class="hl5"><rect x="570" y="526" width="390" height="34" rx="4" fill="#131924" stroke="#facc15" stroke-width="1.5"/></g>

  <!-- ======================= FORMULA COLUMN (Right Zone) ======================= -->
  <g transform="translate(0, 0)">
    <g class="t2_0_f1">
      <text x="580" y="140" fill="#f0f4f8" font-size="20"><tspan font-style="italic">m</tspan> = columns tried per split</text>
    </g>
    
    <g class="t16_0_f2">
      <text x="580" y="240" fill="#f0f4f8" font-size="20"><tspan font-style="italic">P</tspan>(<tspan font-style="italic">i</tspan> ∉ <tspan font-style="italic">D</tspan><tspan baseline-shift="sub" font-size="12" font-style="italic">b</tspan>) = (1 − 1/<tspan font-style="italic">N</tspan>)<tspan baseline-shift="super" font-size="12" font-style="italic">N</tspan> ≈ <tspan font-style="italic">e</tspan><tspan baseline-shift="super" font-size="12">−1</tspan> ≈ 0.368</text>
      <text x="580" y="270" fill="#8a99ad" font-size="15"><tspan font-style="italic">N</tspan> = 1000, <tspan font-style="italic">B</tspan> = 100  →  ≈ 37 trees per row</text>
    </g>

    <g class="t19_0_f3">
      <text x="580" y="350" fill="#f0f4f8" font-size="20"><tspan font-style="italic">ŷ</tspan><tspan baseline-shift="sub" font-size="12" font-style="italic">i</tspan> = majority{ <tspan font-style="italic">h</tspan><tspan baseline-shift="sub" font-size="12" font-style="italic">b</tspan>(<tspan font-style="italic">x</tspan><tspan baseline-shift="sub" font-size="12" font-style="italic">i</tspan>) : <tspan font-style="italic">i</tspan> ∉ <tspan font-style="italic">D</tspan><tspan baseline-shift="sub" font-size="12" font-style="italic">b</tspan> }</text>
    </g>

    <g class="t28_0_f4">
      <text x="580" y="450" fill="#f0f4f8" font-size="20">OOB(<tspan font-style="italic">m</tspan>) = (1/<tspan font-style="italic">N</tspan>) Σ<tspan baseline-shift="sub" font-size="12" font-style="italic">i</tspan> [ <tspan font-style="italic">ŷ</tspan><tspan baseline-shift="sub" font-size="12" font-style="italic">i</tspan> ≠ <tspan font-style="italic">y</tspan><tspan baseline-shift="sub" font-size="12" font-style="italic">i</tspan> ]</text>
    </g>

    <g class="t35_0_f5">
      <text x="580" y="550" fill="#f0f4f8" font-size="20"><tspan font-style="italic">m</tspan>* = argmin<tspan baseline-shift="sub" font-size="12" font-style="italic">m</tspan> OOB(<tspan font-style="italic">m</tspan>)</text>
    </g>
  </g>

</svg>
