<svg xmlns="http://www.w3.org/2000/svg" viewBox="0 0 1000 640" width="1000" height="640" style="background-color:#0b0c10;font-family:'Latin Modern Roman','CMU Serif','Times New Roman',Times,serif">
<title>Graphing a Rational Function — Zeros, Intercept, Asymptotes</title>
<style>
.bg{fill:#0b0c10}.tm{fill:#f0f4f8}.ts{fill:#8a99ad;font-family:system-ui,sans-serif}.cy{fill:#38bdf8}.ye{fill:#facc15}.rd{fill:#ff4d4d}.gr{fill:#4cf26d}.pu{fill:#c678dd}
.axis{stroke:#475569;stroke-width:1.5}.grid{stroke:#1e293b;stroke-width:1}.asy-g{stroke:#4cf26d;stroke-width:2;stroke-dasharray:8 6}.asy-r{stroke:#ff4d4d;stroke-width:2;stroke-dasharray:8 6}
/* timeline: 30 s, plays ONCE (forwards) and holds on the final graph; opacity-only keyframes + dashoffset draw-on for the curve */
.title{opacity:0;animation:k_title 30s linear forwards}@keyframes k_title{0%{opacity:0}0.997%{opacity:0}2.333%{opacity:1}100%{opacity:1}}
.s1{opacity:0;animation:k_s1 30s linear forwards}@keyframes k_s1{0%{opacity:0}3.330%{opacity:0}4.667%{opacity:1}100%{opacity:1}}
.s2{opacity:0;animation:k_s2 30s linear forwards}@keyframes k_s2{0%{opacity:0}16.663%{opacity:0}18.000%{opacity:1}100%{opacity:1}}
.s2b{opacity:0;animation:k_s2b 30s linear forwards}@keyframes k_s2b{0%{opacity:0}19.997%{opacity:0}21.333%{opacity:1}100%{opacity:1}}
.s3{opacity:0;animation:k_s3 30s linear forwards}@keyframes k_s3{0%{opacity:0}31.663%{opacity:0}33.000%{opacity:1}100%{opacity:1}}
.s3b{opacity:0;animation:k_s3b 30s linear forwards}@keyframes k_s3b{0%{opacity:0}34.997%{opacity:0}36.333%{opacity:1}100%{opacity:1}}
.s4{opacity:0;animation:k_s4 30s linear forwards}@keyframes k_s4{0%{opacity:0}46.663%{opacity:0}48.000%{opacity:1}100%{opacity:1}}
.s4b{opacity:0;animation:k_s4b 30s linear forwards}@keyframes k_s4b{0%{opacity:0}53.330%{opacity:0}54.667%{opacity:1}100%{opacity:1}}
.s4c{opacity:0;animation:k_s4c 30s linear forwards}@keyframes k_s4c{0%{opacity:0}56.663%{opacity:0}58.000%{opacity:1}100%{opacity:1}}
.s5{opacity:0;animation:k_s5 30s linear forwards}@keyframes k_s5{0%{opacity:0}66.663%{opacity:0}68.000%{opacity:1}100%{opacity:1}}
.s5b{opacity:0;animation:k_s5b 30s linear forwards}@keyframes k_s5b{0%{opacity:0}69.997%{opacity:0}71.333%{opacity:1}100%{opacity:1}}
.s6{opacity:0;animation:k_s6 30s linear forwards}@keyframes k_s6{0%{opacity:0}78.330%{opacity:0}79.667%{opacity:1}100%{opacity:1}}
.axes{opacity:0;animation:k_axes 30s linear forwards}@keyframes k_axes{0%{opacity:0}0.997%{opacity:0}2.333%{opacity:1}100%{opacity:1}}
.sa{opacity:0;animation:k_sa 30s linear forwards}@keyframes k_sa{0%{opacity:0}56.663%{opacity:0}58.000%{opacity:1}100%{opacity:1}}
.sa-l{opacity:0;animation:k_sa_l 30s linear forwards}@keyframes k_sa_l{0%{opacity:0}58.330%{opacity:0}59.667%{opacity:1}100%{opacity:1}}
.va{opacity:0;animation:k_va 30s linear forwards}@keyframes k_va{0%{opacity:0}69.997%{opacity:0}71.333%{opacity:1}100%{opacity:1}}
.va-l{opacity:0;animation:k_va_l 30s linear forwards}@keyframes k_va_l{0%{opacity:0}71.663%{opacity:0}73.000%{opacity:1}100%{opacity:1}}
.p1{opacity:0;animation:k_p1 30s linear forwards}@keyframes k_p1{0%{opacity:0}19.997%{opacity:0}21.333%{opacity:1}100%{opacity:1}}
.p2{opacity:0;animation:k_p2 30s linear forwards}@keyframes k_p2{0%{opacity:0}19.997%{opacity:0}21.333%{opacity:1}100%{opacity:1}}
.p3{opacity:0;animation:k_p3 30s linear forwards}@keyframes k_p3{0%{opacity:0}34.997%{opacity:0}36.333%{opacity:1}100%{opacity:1}}
.cL.draw{animation:k_cL_draw 30s linear forwards}@keyframes k_cL_draw{0%,80.000%{stroke-dashoffset:487}86.667%,100%{stroke-dashoffset:0}}
.cR.draw{animation:k_cR_draw 30s linear forwards}@keyframes k_cR_draw{0%,87.333%{stroke-dashoffset:185}92.333%,100%{stroke-dashoffset:0}}
</style>
<rect width="1000" height="640" class="bg"/>
<text class="tm title" x="50" y="44" font-size="24" font-weight="bold" ><tspan font-style="italic">Graphing</tspan> <tspan font-style="italic">a</tspan> <tspan font-style="italic">Rational</tspan> <tspan font-style="italic">Function</tspan> — <tspan font-style="italic">Zeros</tspan>, <tspan font-style="italic">Intercept</tspan>, <tspan font-style="italic">Asymptotes</tspan></text>
<line class="title axis" x1="50" y1="58" x2="950" y2="58"/>
<text class="ts s1" x="50" y="100" font-size="14" font-family="system-ui,sans-serif" >1. The function:</text>
<text class="cy s1" x="60" y="141" font-size="22" ><tspan font-style="italic">f</tspan>(<tspan font-style="italic">x</tspan>) =</text>
<text class="tm s1" x="209.5" y="126" font-size="22" text-anchor="middle" >(<tspan font-style="italic">x</tspan> − 2)(<tspan font-style="italic">x</tspan> + 1)</text>
<text class="tm s1" x="209.5" y="156" font-size="22" text-anchor="middle" ><tspan font-style="italic">x</tspan> − 3</text>
<line class="tm s1" x1="130" y1="134" x2="289" y2="134" stroke="#f0f4f8" stroke-width="1.6"/>
<text class="ts s2" x="50" y="188" font-size="14" font-family="system-ui,sans-serif" >2. Zeros — set the numerator to 0:</text>
<text class="tm s2" x="60" y="218" font-size="20" >(<tspan font-style="italic">x</tspan> − 2)(<tspan font-style="italic">x</tspan> + 1) = 0   ⇒   <tspan font-style="italic">x</tspan> = 2,   <tspan font-style="italic">x</tspan> = −1</text>
<text class="ye s2b" x="60" y="244" font-size="15" font-family="system-ui,sans-serif" >x-intercepts  (−1, 0)  and  (2, 0)</text>
<text class="ts s3" x="50" y="280" font-size="14" font-family="system-ui,sans-serif" >3. y-intercept — evaluate f(0):</text>
<text class="cy s3" x="60" y="316" font-size="22" ><tspan font-style="italic">f</tspan>(0) =</text>
<text class="tm s3" x="171.34375" y="301" font-size="20" text-anchor="middle" >(−2)(1)</text>
<text class="tm s3" x="171.34375" y="331" font-size="20" text-anchor="middle" >−3</text>
<line class="tm s3" x1="130" y1="309" x2="213" y2="309" stroke="#f0f4f8" stroke-width="1.6"/>
<text class="tm s3" x="222.6875" y="316" font-size="20" >=</text>
<text class="tm s3" x="257.6875" y="301" font-size="20" text-anchor="middle" >2</text>
<text class="tm s3" x="257.6875" y="331" font-size="20" text-anchor="middle" >3</text>
<line class="tm s3" x1="245" y1="309" x2="271" y2="309" stroke="#f0f4f8" stroke-width="1.6"/>
<text class="pu s3b" x="60" y="356" font-size="15" font-family="system-ui,sans-serif" >y-intercept  (0, 2/3)</text>
<text class="ts s4" x="50" y="388" font-size="14" font-family="system-ui,sans-serif" >4. Divide the numerator by the denominator (degree 2 ÷ degree 1):</text>
<text class="cy s4" x="60" y="424" font-size="22" ><tspan font-style="italic">f</tspan>(<tspan font-style="italic">x</tspan>) =</text>
<text class="tm s4" x="130" y="424" font-size="22" >(<tspan font-style="italic">x</tspan> + 2)</text>
<text class="tm s4" x="213.5" y="424" font-size="22" >+</text>
<text class="ye s4" x="270.21875" y="409" font-size="20" text-anchor="middle" >4</text>
<text class="ye s4" x="270.21875" y="439" font-size="20" text-anchor="middle" ><tspan font-style="italic">x</tspan> − 3</text>
<line class="ye s4" x1="238" y1="417" x2="303" y2="417" stroke="#facc15" stroke-width="1.6"/>
<text class="ts s4b" x="50" y="462" font-size="14" font-family="system-ui,sans-serif" >as x → ±∞ the remainder 4/(x − 3) → 0, so f(x) ≈ x + 2</text>
<text class="gr s4c" x="60" y="486" font-size="15" font-family="system-ui,sans-serif" >slant asymptote  y = x + 2</text>
<text class="ts s5" x="50" y="518" font-size="14" font-family="system-ui,sans-serif" >5. Denominator zero — no factor cancels it:</text>
<text class="tm s5" x="60" y="546" font-size="20" ><tspan font-style="italic">x</tspan> − 3 = 0   ⇒   <tspan font-style="italic">x</tspan> = 3</text>
<text class="rd s5b" x="60" y="570" font-size="15" font-family="system-ui,sans-serif" >vertical asymptote  x = 3</text>
<text class="ts s6" x="50" y="604" font-size="14" font-family="system-ui,sans-serif" >6. Draw f through the three points, hugging both asymptotes.</text>
<defs><clipPath id="plot"><rect x="-150" y="-330" width="390" height="540"/></clipPath></defs>
<g transform="translate(710,410)">
<g class="axes">
<line class="grid" x1="-150" y1="-330" x2="-150" y2="210"/>
<line class="grid" x1="-120" y1="-330" x2="-120" y2="210"/>
<line class="grid" x1="-90" y1="-330" x2="-90" y2="210"/>
<line class="grid" x1="-60" y1="-330" x2="-60" y2="210"/>
<line class="grid" x1="-30" y1="-330" x2="-30" y2="210"/>
<line class="grid" x1="0" y1="-330" x2="0" y2="210"/>
<line class="grid" x1="30" y1="-330" x2="30" y2="210"/>
<line class="grid" x1="60" y1="-330" x2="60" y2="210"/>
<line class="grid" x1="90" y1="-330" x2="90" y2="210"/>
<line class="grid" x1="120" y1="-330" x2="120" y2="210"/>
<line class="grid" x1="150" y1="-330" x2="150" y2="210"/>
<line class="grid" x1="180" y1="-330" x2="180" y2="210"/>
<line class="grid" x1="210" y1="-330" x2="210" y2="210"/>
<line class="grid" x1="240" y1="-330" x2="240" y2="210"/>
<line class="grid" x1="-150" y1="210" x2="240" y2="210"/>
<line class="grid" x1="-150" y1="180" x2="240" y2="180"/>
<line class="grid" x1="-150" y1="150" x2="240" y2="150"/>
<line class="grid" x1="-150" y1="120" x2="240" y2="120"/>
<line class="grid" x1="-150" y1="90" x2="240" y2="90"/>
<line class="grid" x1="-150" y1="60" x2="240" y2="60"/>
<line class="grid" x1="-150" y1="30" x2="240" y2="30"/>
<line class="grid" x1="-150" y1="0" x2="240" y2="0"/>
<line class="grid" x1="-150" y1="-30" x2="240" y2="-30"/>
<line class="grid" x1="-150" y1="-60" x2="240" y2="-60"/>
<line class="grid" x1="-150" y1="-90" x2="240" y2="-90"/>
<line class="grid" x1="-150" y1="-120" x2="240" y2="-120"/>
<line class="grid" x1="-150" y1="-150" x2="240" y2="-150"/>
<line class="grid" x1="-150" y1="-180" x2="240" y2="-180"/>
<line class="grid" x1="-150" y1="-210" x2="240" y2="-210"/>
<line class="grid" x1="-150" y1="-240" x2="240" y2="-240"/>
<line class="grid" x1="-150" y1="-270" x2="240" y2="-270"/>
<line class="grid" x1="-150" y1="-300" x2="240" y2="-300"/>
<line class="grid" x1="-150" y1="-330" x2="240" y2="-330"/>
<line class="axis" x1="-150" y1="0" x2="240" y2="0"/><line class="axis" x1="0" y1="-330" x2="0" y2="210"/>
<text class="ts" x="-120" y="16" font-size="11" font-family="system-ui,sans-serif" text-anchor="middle" >−4</text>
<text class="ts" x="-60" y="16" font-size="11" font-family="system-ui,sans-serif" text-anchor="middle" >−2</text>
<text class="ts" x="60" y="16" font-size="11" font-family="system-ui,sans-serif" text-anchor="middle" >2</text>
<text class="ts" x="120" y="16" font-size="11" font-family="system-ui,sans-serif" text-anchor="middle" >4</text>
<text class="ts" x="180" y="16" font-size="11" font-family="system-ui,sans-serif" text-anchor="middle" >6</text>
<text class="ts" x="240" y="16" font-size="11" font-family="system-ui,sans-serif" text-anchor="middle" >8</text>
<text class="ts" x="-8" y="184" font-size="11" font-family="system-ui,sans-serif" text-anchor="end" >−6</text>
<text class="ts" x="-8" y="124" font-size="11" font-family="system-ui,sans-serif" text-anchor="end" >−4</text>
<text class="ts" x="-8" y="64" font-size="11" font-family="system-ui,sans-serif" text-anchor="end" >−2</text>
<text class="ts" x="-8" y="-56" font-size="11" font-family="system-ui,sans-serif" text-anchor="end" >2</text>
<text class="ts" x="-8" y="-116" font-size="11" font-family="system-ui,sans-serif" text-anchor="end" >4</text>
<text class="ts" x="-8" y="-176" font-size="11" font-family="system-ui,sans-serif" text-anchor="end" >6</text>
<text class="ts" x="-8" y="-236" font-size="11" font-family="system-ui,sans-serif" text-anchor="end" >8</text>
<text class="ts" x="-8" y="-296" font-size="11" font-family="system-ui,sans-serif" text-anchor="end" >10</text>
<text class="ts" x="-8" y="16" font-size="11" font-family="system-ui,sans-serif" text-anchor="end" >0</text>
<text class="ts" x="236" y="-8" font-size="14" text-anchor="end" ><tspan font-style="italic">x</tspan></text>
<text class="ts" x="10" y="-318" font-size="14" ><tspan font-style="italic">y</tspan></text>
</g>
<g class="sa" clip-path="url(#plot)">
<line class="asy-g" x1="-150" y1="90" x2="240" y2="-300"/></g>
<text class="gr sa-l" x="168" y="-196" font-size="15" ><tspan font-style="italic">y</tspan> = <tspan font-style="italic">x</tspan> + 2</text>
<g class="va">
<line class="asy-r" x1="90" y1="-330" x2="90" y2="210"/></g>
<text class="rd va-l" x="84" y="-316" font-size="15" text-anchor="end" ><tspan font-style="italic">x</tspan> = 3</text>
<g clip-path="url(#plot)">
<polyline class="cL draw" points="-150.0,105.0 -148.1,103.2 -146.1,101.4 -144.2,99.6 -142.3,97.8 -140.3,96.0 -138.4,94.2 -136.5,92.4 -134.6,90.6 -132.6,88.8 -130.7,87.0 -128.8,85.2 -126.8,83.4 -124.9,81.7 -123.0,79.9 -121.0,78.1 -119.1,76.3 -117.2,74.6 -115.3,72.8 -113.3,71.0 -111.4,69.3 -109.5,67.5 -107.5,65.8 -105.6,64.0 -103.7,62.3 -101.7,60.5 -99.8,58.8 -97.9,57.0 -96.0,55.3 -94.0,53.6 -92.1,51.9 -90.2,50.1 -88.2,48.4 -86.3,46.7 -84.4,45.0 -82.4,43.3 -80.5,41.6 -78.6,39.9 -76.6,38.3 -74.7,36.6 -72.8,34.9 -70.9,33.2 -68.9,31.6 -67.0,29.9 -65.1,28.3 -63.1,26.6 -61.2,25.0 -59.3,23.4 -57.3,21.8 -55.4,20.2 -53.5,18.6 -51.6,17.0 -49.6,15.4 -47.7,13.8 -45.8,12.3 -43.8,10.7 -41.9,9.2 -40.0,7.7 -38.0,6.2 -36.1,4.7 -34.2,3.2 -32.3,1.7 -30.3,0.2 -28.4,-1.2 -26.5,-2.6 -24.5,-4.0 -22.6,-5.4 -20.7,-6.8 -18.7,-8.2 -16.8,-9.5 -14.9,-10.8 -12.9,-12.1 -11.0,-13.3 -9.1,-14.6 -7.2,-15.8 -5.2,-17.0 -3.3,-18.1 -1.4,-19.2 0.6,-20.3 2.5,-21.4 4.4,-22.4 6.4,-23.3 8.3,-24.2 10.2,-25.1 12.1,-25.9 14.1,-26.7 16.0,-27.4 17.9,-28.0 19.9,-28.5 21.8,-29.0 23.7,-29.4 25.7,-29.7 27.6,-29.9 29.5,-30.0 31.4,-30.0 33.4,-29.8 35.3,-29.5 37.2,-29.0 39.2,-28.3 41.1,-27.5 43.0,-26.4 45.0,-25.0 46.9,-23.4 48.8,-21.4 50.8,-19.0 52.7,-16.2 54.6,-12.9 56.5,-8.9 58.5,-4.3 60.4,1.2 62.3,7.8 64.3,15.6 66.2,25.0 68.1,36.4 70.1,50.4 72.0,67.8 73.9,89.9 75.8,118.5 77.8,156.7 79.7,210.0" fill="none" stroke="#38bdf8" stroke-width="3" stroke-linecap="round" stroke-dasharray="487" stroke-dashoffset="487"/>
<polyline class="cR draw" points="112.9,-330.0 114.0,-324.1 115.1,-318.7 116.1,-313.9 117.2,-309.6 118.3,-305.7 119.3,-302.1 120.4,-298.8 121.5,-295.9 122.5,-293.2 123.6,-290.7 124.7,-288.5 125.7,-286.5 126.8,-284.6 127.9,-282.9 128.9,-281.4 130.0,-280.0 131.1,-278.7 132.1,-277.6 133.2,-276.5 134.3,-275.6 135.3,-274.7 136.4,-274.0 137.5,-273.3 138.5,-272.7 139.6,-272.2 140.7,-271.7 141.8,-271.3 142.8,-271.0 143.9,-270.7 145.0,-270.5 146.0,-270.3 147.1,-270.1 148.2,-270.1 149.2,-270.0 150.3,-270.0 151.4,-270.0 152.4,-270.1 153.5,-270.2 154.6,-270.3 155.6,-270.5 156.7,-270.7 157.8,-270.9 158.8,-271.1 159.9,-271.4 161.0,-271.7 162.0,-272.0 163.1,-272.4 164.2,-272.7 165.2,-273.1 166.3,-273.5 167.4,-273.9 168.4,-274.3 169.5,-274.8 170.6,-275.3 171.7,-275.7 172.7,-276.2 173.8,-276.8 174.9,-277.3 175.9,-277.8 177.0,-278.4 178.1,-278.9 179.1,-279.5 180.2,-280.1 181.3,-280.7 182.3,-281.3 183.4,-281.9 184.5,-282.6 185.5,-283.2 186.6,-283.9 187.7,-284.5 188.7,-285.2 189.8,-285.9 190.9,-286.6 191.9,-287.3 193.0,-288.0 194.1,-288.7 195.1,-289.4 196.2,-290.1 197.3,-290.8 198.4,-291.6 199.4,-292.3 200.5,-293.1 201.6,-293.8 202.6,-294.6 203.7,-295.4 204.8,-296.1 205.8,-296.9 206.9,-297.7 208.0,-298.5 209.0,-299.3 210.1,-300.1 211.2,-300.9 212.2,-301.7 213.3,-302.5 214.4,-303.3 215.4,-304.1 216.5,-305.0 217.6,-305.8 218.6,-306.6 219.7,-307.5 220.8,-308.3 221.8,-309.2 222.9,-310.0 224.0,-310.9 225.0,-311.7 226.1,-312.6 227.2,-313.4 228.3,-314.3 229.3,-315.2 230.4,-316.0 231.5,-316.9 232.5,-317.8 233.6,-318.7 234.7,-319.5 235.7,-320.4 236.8,-321.3 237.9,-322.2 238.9,-323.1 240.0,-324.0" fill="none" stroke="#38bdf8" stroke-width="3" stroke-linecap="round" stroke-dasharray="185" stroke-dashoffset="185"/>
</g>
<circle class="p1" cx="-30.0" cy="0.0" r="5" fill="#facc15"/>
<text class="ye p1" x="-30" y="34" font-size="14" font-family="system-ui,sans-serif" text-anchor="middle" >(−1, 0)</text>
<circle class="p2" cx="60.0" cy="0.0" r="5" fill="#facc15"/>
<text class="ye p2" x="56" y="34" font-size="14" font-family="system-ui,sans-serif" text-anchor="end" >(2, 0)</text>
<circle class="p3" cx="0.0" cy="-20.0" r="5" fill="#c678dd"/>
<text class="pu p3" x="8" y="-40" font-size="14" font-family="system-ui,sans-serif" >(0, 2/3)</text>
</g>
</svg>
